# xmcd
#
# Track frame offsets: 
#        150
#        20170
#        36812
#        61475
#        78775
#        95786
#        113329
#        132030
#        144751
#        165000
#        182386
#        198208
#        219582
#        239246
#
# Disc length: 3477 seconds
#
# Revision: 0
# Processed by: cddbd v1.5.2PL0 Copyright (c) Steve Scherf et al.
# Submitted via: ExactAudioCopy v0.99pb3
#
DISCID=b00d930e
DTITLE=Morris Robinson  - Going Home (2007)
DYEAR=2007
DGENRE=Gospel
TTITLE0=Walk With Me
TTITLE1=Go Down Moses
TTITLE2=Moses, Don't You Let King Pharaoh Overtake You
TTITLE3=Lord, I Want To Be A Christian
TTITLE4=Go Tell It On The Mountain
TTITLE5=Come Sunday
TTITLE6=Wade In The Water
TTITLE7=Sister Mary
TTITLE8=Take My Mother Home
TTITLE9=Were You There
TTITLE10=He Looked Beyond My Faults
TTITLE11=Going Home
TTITLE12=His Eye Is On The Sparrow
TTITLE13=Sometimes I Feel Like A Motherless Child
EXTD=
EXTT0=
EXTT1=
EXTT2=
EXTT3=
EXTT4=
EXTT5=
EXTT6=
EXTT7=
EXTT8=
EXTT9=
EXTT10=
EXTT11=
EXTT12=
EXTT13=
PLAYORDER=
